<svg width="128" height="128" viewBox="0 0 128 128" fill="none" xmlns="http://www.w3.org/2000/svg">
<rect width="128" height="128" rx="12" fill="#0B192C"/>
<path d="M48.7215 58.5902C48.9095 61.9167 52.0901 63.0803 53.657 63.2169C52.0901 63.3536 48.9095 64.5756 48.7215 67.9022C48.5334 64.5756 45.3528 63.3536 43.7859 63.2169C45.3528 63.0803 48.5334 61.9167 48.7215 58.5902Z" fill="#FE7743"/>
<path d="M27.0557 48.3882C27.3217 47.9438 27.8988 47.7984 28.3447 48.0636C28.7905 48.3287 28.9363 48.9039 28.6703 49.3483L13.3963 74.8715L13.3764 74.9048L13.3539 74.9362C13.1618 75.2043 12.9501 75.6238 12.894 75.99C12.8673 76.1639 12.8835 76.2754 12.9072 76.3397C12.924 76.3855 12.9562 76.4446 13.0652 76.5115L16.6194 78.46L16.6672 78.4947L16.7167 78.5295C16.9705 78.7038 17.3247 78.8778 17.6169 78.9248C17.7633 78.9484 17.8314 78.9298 17.8488 78.9229C17.8549 78.9204 17.8586 78.9182 17.8644 78.9128C17.8708 78.9067 17.8913 78.8856 17.9175 78.8334C18.474 77.7239 31.1686 52.7387 31.8036 51.6173C32.0588 51.1666 32.6323 51.0075 33.0844 51.2619C33.5365 51.5163 33.6962 52.0879 33.441 52.5386C32.8357 53.6075 20.1712 78.5312 19.5992 79.6715C19.3626 80.1432 18.9998 80.4822 18.5475 80.6627C18.1173 80.8344 17.6807 80.8335 17.3174 80.775C16.641 80.6662 16.0104 80.3253 15.6149 80.0481L12.1359 78.1409L12.1204 78.1325L12.1052 78.1233C11.6328 77.8407 11.311 77.4454 11.1415 76.984C10.9785 76.5402 10.9763 76.0917 11.0353 75.7068C11.1472 74.9771 11.5052 74.3024 11.7983 73.8838L27.0557 48.3882ZM21.2559 32.7273C21.7833 32.2644 22.578 31.824 23.4724 32.0711C24.3463 32.3124 28.1131 33.1948 31.9382 34.1649C33.833 34.6455 35.7283 35.1445 37.2458 35.5872C38.0036 35.8083 38.6775 36.0182 39.2143 36.2074C39.7141 36.3835 40.1995 36.576 40.4986 36.7791C41.013 37.1284 41.4166 37.6296 41.7375 38.1184C42.063 38.6141 42.3452 39.163 42.5898 39.6574C42.8454 40.1739 43.0495 40.6079 43.2511 40.9639C43.3492 41.1374 43.4317 41.2646 43.5004 41.3529C43.5458 41.4113 43.5726 41.4363 43.5794 41.4426C43.9839 41.6846 44.4079 41.9039 44.8254 42.1137C45.1605 42.2821 45.5088 42.453 45.8158 42.6167C45.8592 42.5891 45.9177 42.5505 45.9985 42.4956C46.1432 42.397 46.4085 42.2115 46.7086 42.1022C47.0416 41.9809 47.482 41.9283 47.9373 42.1462L47.9814 42.1682L48.1324 42.2471C48.5162 42.4496 49.1059 42.7723 49.6173 43.054C49.9119 43.2163 50.1844 43.3672 50.3832 43.4775C50.4826 43.5326 50.5637 43.5777 50.6199 43.609C50.648 43.6246 50.67 43.6367 50.6849 43.645C50.6923 43.6492 50.698 43.6524 50.7018 43.6545C50.7038 43.6556 50.7052 43.6564 50.7062 43.6569C50.7067 43.6572 50.7071 43.6575 50.7074 43.6576L50.7076 43.6577L50.7077 43.6578L51.5266 44.1139L45.3134 55.2534L44.4803 54.7559L44.4802 54.7557L44.4799 54.7555C44.4796 54.7553 44.4792 54.7551 44.4786 54.7548C44.4774 54.7541 44.4757 54.753 44.4733 54.7516C44.4687 54.7488 44.4617 54.7447 44.4526 54.7393C44.4344 54.7284 44.4075 54.7123 44.3732 54.6918C44.3044 54.6507 44.2053 54.5917 44.0842 54.5195C43.8419 54.3752 43.5117 54.1785 43.1596 53.9696C42.4512 53.549 41.6672 53.086 41.3258 52.8923C40.7904 52.5886 40.625 52.0753 40.5791 51.7143C40.5365 51.3788 40.5763 51.0225 40.5992 50.8022C40.6165 50.6364 40.6275 50.5214 40.6318 50.4366C38.4131 49.1887 21.7292 39.7846 20.2543 38.8633C19.4488 38.3602 19.2801 37.459 19.3073 36.7654C19.3358 36.0411 19.5747 35.261 19.9066 34.5745C20.2391 33.8868 20.7042 33.2115 21.2559 32.7273ZM22.9479 33.8756C22.9339 33.8765 22.9073 33.8804 22.8664 33.8952C22.7803 33.9263 22.6542 33.9972 22.4985 34.1339C22.1836 34.4103 21.8555 34.8603 21.6004 35.388C21.3447 35.9169 21.2017 36.4422 21.1862 36.8388C21.1785 37.0347 21.2034 37.1597 21.2287 37.227C21.2404 37.2581 21.2502 37.2716 21.2527 37.2748C21.253 37.2752 21.2532 37.2754 21.2534 37.2756C22.7604 38.2167 41.1133 48.5577 41.7781 48.9295C42.3332 49.2398 42.4703 49.7839 42.5027 50.1178C42.5337 50.437 42.4911 50.7873 42.4694 50.9956C42.4514 51.169 42.4419 51.2861 42.4403 51.3694C42.8489 51.6056 43.5217 52.0033 44.1216 52.3593C44.2932 52.4612 44.4595 52.5603 44.6131 52.6517L48.9705 44.8395C48.8859 44.7927 48.7979 44.7439 48.7077 44.6942C48.1942 44.4113 47.6253 44.1003 47.2636 43.9093C47.2179 43.9368 47.1535 43.9789 47.0587 44.0433C46.9222 44.1363 46.6593 44.3229 46.3704 44.4325C46.0342 44.56 45.5649 44.6223 45.0887 44.3561C44.7882 44.1881 44.4223 44.0099 43.9791 43.7872C43.5497 43.5715 43.0696 43.3242 42.5987 43.0418C42.348 42.8914 42.1565 42.6838 42.0144 42.5012C41.8672 42.3118 41.7339 42.0976 41.6135 41.8848C41.3778 41.4686 41.1334 40.9508 40.9036 40.4864C40.6628 39.9998 40.4228 39.5385 40.1643 39.1447C39.9012 38.7441 39.6588 38.4765 39.4401 38.328C39.4401 38.328 39.4395 38.3277 39.4388 38.3272C39.4379 38.3267 39.4367 38.3259 39.4351 38.3249C39.4318 38.3228 39.4271 38.3199 39.4209 38.3163C39.4082 38.309 39.391 38.2996 39.3684 38.2881C39.3228 38.2648 39.2627 38.2366 39.1862 38.2037C39.0326 38.1375 38.8328 38.0608 38.5876 37.9744C38.0976 37.8018 37.461 37.6027 36.7176 37.3858C35.2328 36.9526 33.3632 36.4601 31.4746 35.9811C27.7329 35.0322 23.859 34.1226 22.9702 33.8771C22.9666 33.8761 22.9606 33.8748 22.9479 33.8756Z" fill="white"/>
<path d="M36.8861 74.9833V73.8187C37.6428 73.8187 38.1703 73.6656 38.4685 73.3595C38.7712 73.0489 38.9225 72.5453 38.9225 71.8487V70.1516C38.9225 69.4018 39.016 68.7873 39.203 68.3082C39.3944 67.829 39.6726 67.4563 40.0376 67.1901C40.4026 66.9239 40.8477 66.7397 41.3729 66.6377C41.8982 66.5312 42.4946 66.478 43.1623 66.478V68.3281C42.6371 68.3281 42.2342 68.4013 41.9538 68.5477C41.6734 68.6897 41.4798 68.9093 41.3729 69.2066C41.2706 69.5039 41.2194 69.8832 41.2194 70.3447V72.5276C41.2194 72.8692 41.1615 73.1886 41.0458 73.4859C40.93 73.7832 40.7186 74.045 40.4115 74.2712C40.1043 74.4931 39.6659 74.6683 39.0961 74.797C38.5308 74.9212 37.7941 74.9833 36.8861 74.9833ZM43.1623 83.3889C42.4946 83.3889 41.8982 83.3356 41.3729 83.2292C40.8477 83.1271 40.4026 82.943 40.0376 82.6768C39.6726 82.4106 39.3944 82.0379 39.203 81.5587C39.016 81.0795 38.9225 80.465 38.9225 79.7152V78.0248C38.9225 77.3282 38.7712 76.8268 38.4685 76.5207C38.1703 76.2101 37.6428 76.0548 36.8861 76.0548V74.8902C37.7941 74.8902 38.5308 74.9545 39.0961 75.0832C39.6659 75.2074 40.1043 75.3827 40.4115 75.6089C40.7186 75.8308 40.93 76.0903 41.0458 76.3876C41.1615 76.6849 41.2194 77.0021 41.2194 77.3393V79.5222C41.2194 79.9836 41.2706 80.363 41.3729 80.6602C41.4798 80.9575 41.6734 81.1793 41.9538 81.3258C42.2342 81.4722 42.6371 81.5454 43.1623 81.5454V83.3889ZM36.8861 76.0548V73.8187H39.0027V76.0548H36.8861Z" fill="#FE7743"/>
<path d="M60.6743 74.9833V73.8187C59.9176 73.8187 59.3902 73.6656 59.0919 73.3595C58.7892 73.0489 58.6379 72.5453 58.6379 71.8487V70.1516C58.6379 69.4018 58.5444 68.7873 58.3575 68.3082C58.1661 67.829 57.8879 67.4563 57.5229 67.1901C57.1579 66.9239 56.7127 66.7397 56.1875 66.6377C55.6623 66.5312 55.0658 66.478 54.3981 66.478V68.3281C54.9234 68.3281 55.3262 68.4013 55.6066 68.5477C55.887 68.6897 56.0807 68.9093 56.1875 69.2066C56.2899 69.5039 56.3411 69.8832 56.3411 70.3447V72.5276C56.3411 72.8692 56.3989 73.1886 56.5147 73.4859C56.6304 73.7832 56.8418 74.045 57.149 74.2712C57.4561 74.4931 57.8945 74.6683 58.4643 74.797C59.0296 74.9212 59.7663 74.9833 60.6743 74.9833ZM54.3981 83.3889C55.0658 83.3889 55.6623 83.3356 56.1875 83.2292C56.7127 83.1271 57.1579 82.943 57.5229 82.6768C57.8879 82.4106 58.1661 82.0379 58.3575 81.5587C58.5444 81.0795 58.6379 80.465 58.6379 79.7152V78.0248C58.6379 77.3282 58.7892 76.8268 59.0919 76.5207C59.3902 76.2101 59.9176 76.0548 60.6743 76.0548V74.8902C59.7663 74.8902 59.0296 74.9545 58.4643 75.0832C57.8945 75.2074 57.4561 75.3827 57.149 75.6089C56.8418 75.8308 56.6304 76.0903 56.5147 76.3876C56.3989 76.6849 56.3411 77.0021 56.3411 77.3393V79.5222C56.3411 79.9836 56.2899 80.363 56.1875 80.6602C56.0807 80.9575 55.887 81.1793 55.6066 81.3258C55.3262 81.4722 54.9234 81.5454 54.3981 81.5454V83.3889ZM60.6743 76.0548V73.8187H58.5578V76.0548H60.6743Z" fill="#FE7743"/>
<path d="M68.5196 66.5552V52.9253H73.6474C74.6979 52.9253 75.5793 53.1205 76.2915 53.5109C77.0081 53.9014 77.5489 54.4382 77.9139 55.1215C78.2834 55.8003 78.4681 56.5723 78.4681 57.4375C78.4681 58.3116 78.2834 59.088 77.9139 59.7668C77.5445 60.4457 76.9992 60.9803 76.2781 61.3708C75.557 61.7568 74.669 61.9498 73.614 61.9498H70.2155V59.9199H73.2802C73.8945 59.9199 74.3975 59.8134 74.7892 59.6005C75.1809 59.3875 75.4702 59.0947 75.6572 58.722C75.8486 58.3493 75.9443 57.9211 75.9443 57.4375C75.9443 56.9539 75.8486 56.528 75.6572 56.1597C75.4702 55.7915 75.1787 55.5053 74.7825 55.3012C74.3908 55.0927 73.8856 54.9884 73.2669 54.9884H70.9967V66.5552H68.5196Z" fill="white"/>
<path d="M80.5129 66.5552V56.3328H82.8565V58.0365H82.9633C83.1502 57.4464 83.4707 56.9916 83.9248 56.6722C84.3832 56.3483 84.9063 56.1863 85.4938 56.1863C85.6273 56.1863 85.7765 56.193 85.9412 56.2063C86.1103 56.2152 86.2505 56.2307 86.3618 56.2529V58.4691C86.2594 58.4336 86.097 58.4025 85.8744 58.3759C85.6563 58.3448 85.4448 58.3293 85.2401 58.3293C84.7994 58.3293 84.4033 58.4247 84.0516 58.6155C83.7044 58.8018 83.4307 59.0614 83.2304 59.3942C83.0301 59.7269 82.9299 60.1107 82.9299 60.5455V66.5552H80.5129Z" fill="white"/>
<path d="M92.0188 66.7548C91.0172 66.7548 90.1492 66.5352 89.4148 66.096C88.6803 65.6567 88.1106 65.0422 87.7055 64.2525C87.3049 63.4627 87.1046 62.5399 87.1046 61.4839C87.1046 60.4279 87.3049 59.5029 87.7055 58.7087C88.1106 57.9145 88.6803 57.2978 89.4148 56.8585C90.1492 56.4193 91.0172 56.1996 92.0188 56.1996C93.0203 56.1996 93.8883 56.4193 94.6227 56.8585C95.3572 57.2978 95.9247 57.9145 96.3253 58.7087C96.7304 59.5029 96.9329 60.4279 96.9329 61.4839C96.9329 62.5399 96.7304 63.4627 96.3253 64.2525C95.9247 65.0422 95.3572 65.6567 94.6227 66.096C93.8883 66.5352 93.0203 66.7548 92.0188 66.7548ZM92.0321 64.8248C92.5752 64.8248 93.0292 64.6762 93.3942 64.3789C93.7592 64.0772 94.0307 63.6735 94.2088 63.1677C94.3913 62.6619 94.4825 62.0984 94.4825 61.4772C94.4825 60.8516 94.3913 60.286 94.2088 59.7802C94.0307 59.2699 93.7592 58.864 93.3942 58.5623C93.0292 58.2605 92.5752 58.1097 92.0321 58.1097C91.4757 58.1097 91.0128 58.2605 90.6433 58.5623C90.2783 58.864 90.0046 59.2699 89.8221 59.7802C89.644 60.286 89.555 60.8516 89.555 61.4772C89.555 62.0984 89.644 62.6619 89.8221 63.1677C90.0046 63.6735 90.2783 64.0772 90.6433 64.3789C91.0128 64.6762 91.4757 64.8248 92.0321 64.8248Z" fill="white"/>
<path d="M98.9844 70.3886V56.3328H101.361V58.0232H101.502C101.626 57.7747 101.802 57.5107 102.029 57.2312C102.256 56.9473 102.563 56.7054 102.95 56.5058C103.338 56.3017 103.832 56.1996 104.433 56.1996C105.225 56.1996 105.939 56.4015 106.576 56.8053C107.217 57.2046 107.724 57.7969 108.098 58.5822C108.477 59.3631 108.666 60.3214 108.666 61.4573C108.666 62.5798 108.481 63.5337 108.112 64.319C107.742 65.1043 107.239 65.7033 106.603 66.1159C105.966 66.5285 105.245 66.7349 104.439 66.7349C103.852 66.7349 103.364 66.6372 102.977 66.442C102.59 66.2468 102.278 66.0117 102.042 65.7366C101.811 65.4571 101.631 65.1931 101.502 64.9446H101.401V70.3886H98.9844ZM101.355 61.444C101.355 62.105 101.448 62.6841 101.635 63.181C101.826 63.6779 102.1 64.0661 102.456 64.3456C102.817 64.6207 103.253 64.7583 103.765 64.7583C104.299 64.7583 104.746 64.6163 105.107 64.3323C105.468 64.0439 105.739 63.6513 105.922 63.1544C106.109 62.653 106.202 62.0829 106.202 61.444C106.202 60.8095 106.111 60.246 105.928 59.7535C105.746 59.2611 105.474 58.875 105.114 58.5955C104.753 58.316 104.304 58.1762 103.765 58.1762C103.249 58.1762 102.81 58.3116 102.45 58.5822C102.089 58.8529 101.815 59.2322 101.628 59.7203C101.446 60.2083 101.355 60.7829 101.355 61.444Z" fill="white"/>
<path d="M68.5196 82.9536V69.3237H77.2796V71.3935H70.9967V75.0938H76.6787V77.1636H70.9967V82.9536H68.5196Z" fill="#FE7743"/>
<path d="M83.1502 83.1533C82.1487 83.1533 81.2807 82.9337 80.5463 82.4944C79.8118 82.0552 79.2421 81.4407 78.837 80.6509C78.4364 79.8612 78.2361 78.9383 78.2361 77.8824C78.2361 76.8264 78.4364 75.9013 78.837 75.1071C79.2421 74.3129 79.8118 73.6962 80.5463 73.257C81.2807 72.8177 82.1487 72.5981 83.1502 72.5981C84.1518 72.5981 85.0198 72.8177 85.7542 73.257C86.4887 73.6962 87.0562 74.3129 87.4568 75.1071C87.8619 75.9013 88.0644 76.8264 88.0644 77.8824C88.0644 78.9383 87.8619 79.8612 87.4568 80.6509C87.0562 81.4407 86.4887 82.0552 85.7542 82.4944C85.0198 82.9337 84.1518 83.1533 83.1502 83.1533ZM83.1636 81.2233C83.7066 81.2233 84.1607 81.0746 84.5257 80.7774C84.8907 80.4757 85.1622 80.0719 85.3402 79.5661C85.5227 79.0603 85.614 78.4969 85.614 77.8757C85.614 77.2501 85.5227 76.6844 85.3402 76.1786C85.1622 75.6684 84.8907 75.2624 84.5257 74.9607C84.1607 74.659 83.7066 74.5082 83.1636 74.5082C82.6072 74.5082 82.1443 74.659 81.7748 74.9607C81.4098 75.2624 81.1361 75.6684 80.9536 76.1786C80.7755 76.6844 80.6865 77.2501 80.6865 77.8757C80.6865 78.4969 80.7755 79.0603 80.9536 79.5661C81.1361 80.0719 81.4098 80.4757 81.7748 80.7774C82.1443 81.0746 82.6072 81.2233 83.1636 81.2233Z" fill="#FE7743"/>
<path d="M90.1159 82.9536V72.7312H92.4594V74.4349H92.5663C92.7532 73.8449 93.0737 73.3901 93.5277 73.0706C93.9862 72.7467 94.5092 72.5848 95.0968 72.5848C95.2303 72.5848 95.3794 72.5914 95.5441 72.6048C95.7133 72.6136 95.8535 72.6292 95.9648 72.6513V74.8675C95.8624 74.832 95.6999 74.801 95.4774 74.7744C95.2592 74.7433 95.0478 74.7278 94.8431 74.7278C94.4024 74.7278 94.0062 74.8232 93.6546 75.014C93.3074 75.2003 93.0336 75.4599 92.8333 75.7926C92.633 76.1254 92.5329 76.5092 92.5329 76.944V82.9536H90.1159Z" fill="#FE7743"/>
<path d="M101.608 87C100.74 87 99.9948 86.8824 99.3716 86.6473C98.7484 86.4166 98.2477 86.106 97.8693 85.7155C97.491 85.3251 97.2284 84.8925 97.0815 84.4178L99.2581 83.892C99.356 84.0917 99.4985 84.2891 99.6854 84.4843C99.8724 84.684 100.124 84.8481 100.44 84.9768C100.76 85.1099 101.163 85.1765 101.648 85.1765C102.334 85.1765 102.901 85.0101 103.351 84.6773C103.801 84.349 104.025 83.8077 104.025 83.0535V81.1168H103.905C103.781 81.3652 103.598 81.6204 103.358 81.8821C103.122 82.1439 102.808 82.3635 102.416 82.541C102.029 82.7185 101.542 82.8072 100.954 82.8072C100.166 82.8072 99.4517 82.6231 98.8108 82.2548C98.1742 81.8821 97.6668 81.3275 97.2885 80.591C96.9145 79.8501 96.7276 78.9228 96.7276 77.8091C96.7276 76.6866 96.9145 75.7394 97.2885 74.9674C97.6668 74.1909 98.1765 73.603 98.8174 73.2037C99.4584 72.8 100.173 72.5981 100.961 72.5981C101.562 72.5981 102.056 72.7002 102.443 72.9042C102.835 73.1039 103.146 73.3457 103.378 73.6297C103.609 73.9092 103.785 74.1732 103.905 74.4216H104.039V72.7312H106.422V83.12C106.422 83.9941 106.213 84.7173 105.795 85.2896C105.376 85.862 104.804 86.2901 104.079 86.5741C103.353 86.858 102.53 87 101.608 87ZM101.628 80.9171C102.14 80.9171 102.577 80.7929 102.937 80.5444C103.298 80.296 103.571 79.9388 103.758 79.4729C103.945 79.0071 104.039 78.448 104.039 77.7958C104.039 77.1525 103.945 76.589 103.758 76.1054C103.576 75.6218 103.304 75.2469 102.944 74.9807C102.588 74.71 102.149 74.5747 101.628 74.5747C101.09 74.5747 100.64 74.7145 100.28 74.994C99.9191 75.2735 99.6476 75.6573 99.4651 76.1453C99.2826 76.629 99.1913 77.1791 99.1913 77.7958C99.1913 78.4214 99.2826 78.9694 99.4651 79.4397C99.652 79.9055 99.9258 80.2694 100.286 80.5311C100.651 80.7885 101.099 80.9171 101.628 80.9171Z" fill="#FE7743"/>
<path d="M113.44 83.1533C112.411 83.1533 111.523 82.9403 110.776 82.5144C110.032 82.084 109.46 81.4762 109.06 80.6909C108.659 79.9011 108.459 78.9716 108.459 77.9023C108.459 76.8508 108.659 75.9279 109.06 75.1337C109.465 74.3351 110.03 73.714 110.756 73.2703C111.481 72.8222 112.334 72.5981 113.313 72.5981C113.945 72.5981 114.541 72.7002 115.102 72.9042C115.668 73.1039 116.166 73.4145 116.598 73.836C117.034 74.2575 117.377 74.7943 117.626 75.4465C117.875 76.0943 118 76.8663 118 77.7626V78.5013H109.594V76.8774H115.683C115.679 76.416 115.579 76.0056 115.383 75.6462C115.187 75.2824 114.913 74.9962 114.561 74.7877C114.214 74.5791 113.809 74.4749 113.346 74.4749C112.852 74.4749 112.418 74.5947 112.044 74.8343C111.67 75.0694 111.379 75.38 111.17 75.766C110.965 76.1476 110.86 76.5668 110.856 77.0238V78.4414C110.856 79.0359 110.965 79.5462 111.183 79.9721C111.401 80.3936 111.706 80.7175 112.098 80.9438C112.489 81.1656 112.948 81.2765 113.473 81.2765C113.825 81.2765 114.143 81.2277 114.428 81.1301C114.713 81.0281 114.96 80.8794 115.169 80.6842C115.378 80.489 115.536 80.2472 115.643 79.9588L117.9 80.2117C117.757 80.8062 117.486 81.3253 117.085 81.769C116.689 82.2082 116.182 82.5499 115.563 82.7939C114.944 83.0335 114.236 83.1533 113.44 83.1533Z" fill="#FE7743"/>
</svg>
